# xmcd
#
# Track frame offsets:
#	150
#	7973
#	28233
#	45086
#	64620
#
# Disc length: 1083 seconds
#
# Revision: 0
# Processed by: cddbd v1.4PL0 Copyright (c) Steve Scherf et al.
# Submitted via: dBpowerAMP V4.0
#
DISCID=2f043905
DTITLE=Hudson Wayne - Slightly Out Of Hank
DYEAR=1900
DGENRE=Country
TTITLE0=Love
TTITLE1=Raindrops
TTITLE2=Nyjasti Singullinn
TTITLE3=Sexual Garden
TTITLE4=We Rode
EXTD=
EXTT0=
EXTT1=
EXTT2=
EXTT3=
EXTT4=
PLAYORDER=
